<svg width="93" height="77" viewBox="0 0 93 77" fill="none" xmlns="http://www.w3.org/2000/svg">
<path fill-rule="evenodd" clip-rule="evenodd" d="M90.4141 15.5869C88.7881 14.7239 85.8964 14.9937 83.6785 14.6597C81.2444 14.5192 78.8558 14.3412 76.6841 13.9634C74.8357 14.4355 72.9473 14.1251 70.988 14.1949C69.0488 14.264 67.0024 14.4257 65.0314 14.4257C52.3936 14.4257 40.2107 14.6792 28.2529 14.8913C26.7984 15.1351 25.1316 15.1887 23.5872 15.352C22.5395 13.2012 22.1728 10.436 21.7724 7.70332C21.5645 6.34146 21.2376 5.09416 20.9979 3.76236C20.4968 3.43733 20.6094 2.56138 20.219 2.13885C19.9403 1.53673 19.2866 1.27671 19.1831 0.516959C17.7214 0.511271 17.0414 -0.195665 15.2964 0.0529814C14.9977 0.247185 14.6028 0.35932 14.0027 0.283751C11.112 1.25233 8.79776 2.73527 5.97514 3.7648C3.02995 4.14264 0.703035 5.07304 0.0175802 7.47174C-0.0523271 8.76941 0.0629746 9.90376 0.7911 10.4864C0.962691 11.5712 2.16927 11.7288 2.86199 12.3407H5.97423C6.01327 11.9124 6.85034 12.1976 7.00922 11.8791C7.07096 11.4712 7.45318 11.3501 8.04693 11.4135C7.94888 10.3986 8.78686 10.2207 8.82227 9.32846V6.31383C12.1597 6.36421 12.8905 4.08251 16.3359 4.22796C17.7205 12.0278 20.0419 18.9915 21.5127 26.7142C23.3385 34.124 24.8692 41.7939 26.694 49.2012C25.2015 49.1029 24.2237 49.4653 23.0679 49.6644C22.0166 50.5794 20.6974 51.2538 19.4409 51.9827C18.2053 52.809 17.2375 53.8735 16.3359 54.9981V58.9399C16.9597 59.3852 17.3609 60.0271 17.8875 60.5618C18.514 61.0062 19.5163 61.1135 19.9611 61.7221C27.9333 63.214 36.8388 61.185 44.0483 59.867C51.0172 60.3529 58.7252 60.1758 65.8058 60.5618H77.2025C77.562 61.0899 79.0065 60.6471 79.7936 60.7933H82.6426C84.5746 60.8226 86.0145 60.4114 86.2705 58.9399C86.4094 57.1132 85.2709 56.4307 83.6776 56.1568C77.8335 56.1341 71.8033 56.2755 66.326 55.9244H43.0151C41.1467 56.1853 39.5415 56.6817 37.576 56.8532C36.2232 57.574 33.5876 57.1482 32.3919 58.0119C30.0568 57.8535 28.5125 58.4036 26.1793 58.2427C24.0021 58.2614 21.7324 58.3597 20.9979 57.0848C21.5499 55.5734 23.5409 55.3418 24.3644 54.0701C25.2732 53.8808 25.9223 53.4583 26.9555 53.3762C26.9836 52.9391 27.8107 53.2161 27.7308 52.6815C27.956 52.3418 28.1185 51.9469 28.7658 51.9843C29.1435 52.8375 30.1204 51.8071 30.8385 52.4515C31.1962 53.0561 31.7882 53.4518 32.9112 53.377C44.6075 53.2153 55.6974 51.4204 67.3601 51.9843C68.9199 51.682 70.634 51.5154 72.28 51.2904H78.4972C80.992 51.5203 84.3875 52.2394 86.2705 51.0596C87.4344 49.8261 86.2678 47.7102 87.823 46.6546C87.8575 44.5233 88.5874 43.0119 88.601 40.8586C89.4626 39.5447 89.7305 37.6969 90.4132 36.2204C91.2094 34.7708 91.5744 32.9328 92.4859 31.5872C93.1904 26.2267 93.6725 18.7445 90.4141 15.5869ZM57.0002 18.8323C57.1273 20.4956 57.4369 21.998 57.5168 23.7004C57.6457 24.5129 57.9045 25.2085 57.7774 26.251C58.3984 26.5427 57.633 28.0785 58.2949 28.3361C58.1832 28.8537 57.0184 28.4312 56.4827 28.5677H54.4118C51.4494 28.8537 48.4624 29.1186 45.0842 29.0325C44.0601 25.6229 42.6983 22.5116 41.9774 18.8315L57.0002 18.8323ZM27.9896 32.0455C26.7576 27.4309 25.3095 23.0073 24.3644 18.1367C29.1353 18.6608 34.1923 18.9233 39.6478 18.8323C39.5261 22.9577 41.2229 25.4572 40.9433 29.728C37.5015 29.7378 34.8895 30.4926 31.6166 30.6552C30.3374 31.0558 29.247 31.6237 27.9896 32.0455ZM36.0198 49.2004C34.6653 49.4564 33.3025 49.7034 32.1341 50.1292C30.923 44.8784 29.4921 39.8209 28.5098 34.3662C32.6253 35.4363 37.1384 34.2565 41.7205 34.3662C42.6719 38.1454 41.7059 43.6498 42.7546 47.347C43.5716 47.5468 43.8495 48.2229 44.8273 48.2757C49.0371 47.7281 46.8936 41.8515 47.1569 38.3055C46.8391 36.8916 46.4034 35.5801 46.3816 33.9014C50.172 33.4293 54.1967 33.1684 58.5572 33.2066C58.6843 38.1145 58.9767 42.8762 59.5913 47.347C51.7653 47.9954 44.0955 48.7795 36.0198 49.2004ZM70.9871 46.6514C68.2163 47.0325 65.4772 47.4388 62.1806 47.3461C61.9355 42.6186 61.3508 38.1982 61.4035 33.2058H71.5064C71.8569 37.2573 70.6957 41.8873 70.9871 46.6514ZM72.023 28.5685C68.6466 29.1763 64.8071 28.2418 60.886 28.5685C60.7761 25.1134 60.0353 22.2215 59.8464 18.8323C64.0227 18.4154 67.9893 18.7616 72.28 18.8323C71.9495 21.8567 72.013 25.2353 72.023 28.5685ZM87.3055 31.5839C85.4706 34.0363 84.895 37.6181 83.1637 40.1606C83.0393 42.6015 82.5409 44.7061 82.1242 46.883C79.5957 46.5978 76.8766 46.4808 74.0948 46.419C75.2487 42.6625 75.1834 37.8106 75.65 33.4382C78.8331 32.8873 83.0012 33.2164 84.7135 31.3515C82.796 29.8215 79.3606 29.65 75.9088 29.4964V18.5999C79.7137 18.8241 83.3262 19.2256 87.3055 19.2954C88.1998 22.8545 87.8902 27.9907 87.3055 31.5839ZM35.5033 62.6468C32.9521 62.7598 31.2861 63.6633 29.5448 64.4995C28.5625 65.6322 27.4149 66.613 27.2142 68.4413C27.0554 69.9762 27.7653 70.7311 28.2529 71.6858C27.4503 72.691 28.675 73.5312 28.5098 74.7005C29.651 75.2246 30.0024 76.454 31.3597 76.7871C33.8119 77.4128 36.2486 76.4995 38.3513 76.0932C38.5302 75.6349 39.0431 75.474 39.6487 75.3977C41.5589 73.6311 43.4718 71.8646 43.7914 68.6761V67.2833C43.2902 65.3364 41.9701 64.1216 40.6818 62.8776C39.0186 62.8947 37.1538 61.8692 35.5033 62.6468ZM38.0916 69.834C37.1238 70.2021 36.9423 71.2739 35.762 71.4567C34.2676 70.7855 32.5027 70.3565 31.3588 69.37C31.7001 66.721 35.8682 65.6176 38.8697 66.8202C39.0604 68.2275 38.6191 69.0669 38.0916 69.834ZM79.2761 62.8776C78.3428 62.6249 76.0186 62.4014 75.1307 62.8776C73.659 62.798 72.9091 63.3619 71.5064 63.3424C70.6657 63.9055 69.6716 64.3305 68.6575 64.7335C68.1581 65.6777 66.8689 65.9166 66.5839 67.0518C66.07 68.4486 66.4332 70.6246 66.3269 72.383C66.7872 72.8218 67.0251 73.4572 67.6198 73.7758C67.8377 74.4315 68.8064 74.4144 68.9162 75.1653C70.0638 74.9134 70.2045 75.5602 70.988 75.6284C73.127 75.691 74.9973 75.509 76.4272 74.9353C77.2624 74.7541 77.9561 74.4494 78.4981 74.0065C79.4659 73.8643 79.5512 72.9404 80.5708 72.8462C81.3815 71.0967 82.6026 69.7186 82.6426 67.2825C82.4646 66.2831 81.8772 65.6517 81.8672 64.4995C80.6661 64.263 80.509 63.0905 79.2761 62.8776ZM74.8738 70.7611C73.1679 70.432 70.565 70.9066 70.988 68.6761C71.2005 67.9383 72.0993 67.8148 72.8011 67.5165C73.2922 67.1054 74.4598 67.2996 74.8738 66.821C76.2992 66.9104 76.6714 66.5699 77.7218 66.821C77.819 69.0694 76.34 69.9079 74.8738 70.7611Z" fill="#DE0BB0" fill-opacity="0.95"/>
</svg>
