<svg width="22" height="21" viewBox="0 0 22 21" fill="none" xmlns="http://www.w3.org/2000/svg">
<g filter="url(#filter0_d_10_3)">
<path d="M12.6627 0C12.1937 0 11.8053 0.365371 11.8053 0.808642V4.35295C11.8053 4.51664 11.8994 4.67409 12.1162 4.67409V5.28361H11.792C11.2801 5.28361 10.7868 5.47623 10.4291 5.79408C10.0715 6.11193 9.84832 6.57997 9.94515 7.08256L10.5669 10.3106C10.6523 10.7538 10.8438 11.1697 11.1534 11.4853C11.463 11.8009 11.9019 12.0083 12.4138 12.0083H15.2124C15.7242 12.0083 16.1631 11.8009 16.4727 11.4853C16.7823 11.1697 16.9732 10.7538 17.0586 10.3106L17.6827 7.08256C17.7795 6.57997 17.5546 6.11193 17.197 5.79408C16.8393 5.47623 16.3477 5.28361 15.8359 5.28361H15.5099V4.67192C15.7165 4.67192 15.8208 4.54244 15.8208 4.39068V0.808642C15.8208 0.365371 15.4342 0.00055363 14.9652 0.00055363L12.6627 0ZM12.6627 0.560274H14.9646C15.1159 0.560274 15.2274 0.6665 15.2274 0.808642V4.11112H12.3981V0.808642C12.3981 0.6665 12.5114 0.560274 12.6627 0.560274ZM14.3694 1.08551C14.2066 1.08897 14.0769 1.21504 14.0788 1.36891V2.48996C14.0874 2.85528 14.6631 2.85528 14.6716 2.48996V1.36891C14.6736 1.21077 14.5368 1.08243 14.3694 1.08551ZM5.14225 3.007C4.89477 3.28765 4.88868 3.60447 4.88868 3.60447V4.51873C4.35129 4.87312 4 5.46183 4 6.12726V11.6773C4 11.8769 4.09485 12.0089 4.34621 12.0089H9.03969C9.20259 12.0084 9.33438 11.8833 9.33494 11.7293V6.12781C9.33494 5.46305 8.98306 4.87581 8.44627 4.52147V3.60447C8.44627 3.60447 8.44013 3.28765 8.1927 3.007C7.94522 2.72634 7.4681 2.48559 6.66777 2.48559C5.86744 2.48559 5.38973 2.72634 5.14225 3.007ZM7.73765 3.36483C7.86069 3.50437 7.85344 3.60447 7.85344 3.60447V5.84604C7.85344 6.47165 7.32975 6.96656 6.66777 6.96656C6.52587 6.96656 6.39197 6.94013 6.26656 6.89815C6.28019 6.67784 6.32063 6.52722 6.37772 6.4041C6.51548 6.42094 6.64911 6.41014 6.76619 6.38543C6.96341 6.34414 7.10533 6.29597 7.24323 6.17642C7.45579 5.99695 7.30374 5.66505 7.01976 5.68839C6.95325 5.69443 6.89088 5.72188 6.8426 5.7655C6.85426 5.75496 6.82927 5.76722 6.80728 5.7781C6.9579 5.53867 7.09212 5.21926 7.09212 4.7435C7.09506 4.57416 6.93956 4.4411 6.76156 4.46062C6.60998 4.47695 6.49626 4.59934 6.49872 4.7435C6.49872 4.84482 6.49285 4.92903 6.48366 5.00611C6.40384 4.9623 6.38318 4.93811 6.37888 4.92568C6.33908 4.80528 6.21874 4.7249 6.08535 4.72927C5.88723 4.73704 5.7523 4.92227 5.81615 5.09967C5.88936 5.31051 6.0656 5.42679 6.1994 5.49852C6.23452 5.51736 6.24442 5.52263 6.27582 5.53843C6.23511 5.59337 6.19061 5.64792 6.14208 5.70966C5.99377 5.8984 5.8203 6.14854 5.72988 6.53036C5.57606 6.34142 5.48152 6.10639 5.48152 5.84591V3.60431C5.48152 3.60431 5.47428 3.50417 5.59731 3.3647C5.72035 3.22514 5.986 3.04571 6.66777 3.04571C7.34953 3.04571 7.6146 3.22529 7.73765 3.36483ZM12.709 4.67192H14.9165V5.28361H12.709V4.67192ZM8.44627 5.28579C8.63162 5.51921 8.74211 5.8095 8.74211 6.12781V11.4503H4.59342V6.12781C4.59342 5.81058 4.70402 5.52126 4.88868 5.28798V5.84604C4.88868 6.46869 5.25055 7.01252 5.78488 7.30306C5.80993 7.3212 5.83788 7.33537 5.86767 7.34522C6.10857 7.46063 6.37996 7.52741 6.66777 7.52741C7.64794 7.52741 8.44627 6.7724 8.44627 5.84609V5.28579ZM11.792 5.84387H15.8359C16.1857 5.84387 16.5469 5.98566 16.79 6.20169C17.0331 6.41771 17.1559 6.68389 17.0986 6.98135L16.4768 10.2116C16.408 10.5685 16.2532 10.8862 16.0391 11.1045C15.825 11.3228 15.5622 11.4497 15.2124 11.4497H12.4138C12.064 11.4497 11.8029 11.3228 11.5888 11.1045C11.3746 10.8862 11.2175 10.5685 11.1488 10.2116L10.5276 6.98135C10.4703 6.68389 10.5931 6.41771 10.8362 6.20169C11.0793 5.98566 11.4422 5.84387 11.792 5.84387ZM12.5272 6.40412C12.172 6.40412 11.8349 6.5373 11.5865 6.75811C11.338 6.97888 11.1761 7.31249 11.2449 7.66961L11.6409 9.72519C11.6982 10.0229 11.8271 10.3049 12.0415 10.5235C12.2559 10.742 12.5657 10.8895 12.9209 10.8895H14.7046C15.0598 10.8895 15.3697 10.742 15.584 10.5235C15.7984 10.3049 15.9273 10.0229 15.9847 9.72519L16.3807 7.66961C16.4495 7.31249 16.2875 6.97888 16.0391 6.75811C15.7907 6.5373 15.4558 6.40412 15.1006 6.40412H12.5272ZM12.5272 6.96493H15.1006C15.2938 6.96493 15.5005 7.04622 15.6344 7.16518C15.7683 7.28415 15.8275 7.4164 15.7983 7.56841L15.4023 9.62396C15.3615 9.83535 15.2699 10.0198 15.151 10.141C15.0321 10.2622 14.8978 10.3292 14.7046 10.3292H12.9209C12.7278 10.3292 12.5935 10.2622 12.4746 10.141C12.3556 10.0198 12.264 9.83538 12.2233 9.62396L11.8273 7.56841C11.798 7.4164 11.8573 7.28415 11.9911 7.16518C12.125 7.0462 12.3341 6.96493 12.5272 6.96493ZM5.60194 7.83924C5.30344 7.84977 5.20671 8.22349 5.46646 8.36284C5.79164 8.54722 6.2095 8.64791 6.66777 8.64791C7.12603 8.64791 7.54332 8.54721 7.8685 8.36284C8.20852 8.17135 7.90458 7.68933 7.56455 7.88082C7.35394 8.00024 7.03058 8.08764 6.66777 8.08764C6.30494 8.08764 5.981 8.00028 5.7704 7.88082C5.71991 7.85127 5.66123 7.83691 5.60194 7.83924Z" fill="#BD00FF"/>
</g>
<defs>
<filter id="filter0_d_10_3" x="0" y="0" width="21.7052" height="20.0089" filterUnits="userSpaceOnUse" color-interpolation-filters="sRGB">
<feFlood flood-opacity="0" result="BackgroundImageFix"/>
<feColorMatrix in="SourceAlpha" type="matrix" values="0 0 0 0 0 0 0 0 0 0 0 0 0 0 0 0 0 0 127 0" result="hardAlpha"/>
<feOffset dy="4"/>
<feGaussianBlur stdDeviation="2"/>
<feComposite in2="hardAlpha" operator="out"/>
<feColorMatrix type="matrix" values="0 0 0 0 0 0 0 0 0 0 0 0 0 0 0 0 0 0 0.25 0"/>
<feBlend mode="normal" in2="BackgroundImageFix" result="effect1_dropShadow_10_3"/>
<feBlend mode="normal" in="SourceGraphic" in2="effect1_dropShadow_10_3" result="shape"/>
</filter>
</defs>
</svg>
